/* XPM */
static char *_a1969159063466adc125cc4610d32fdFOtuRb6vHDMKEQtP[] = {
/* columns rows colors chars-per-pixel */
"600 20 2 1 ",
"  c black",
". c white",
/* pixels */
"                                                                                                                                                                                                                                                                                                                                                                                                                                                                                                                                                                                                                        ",
"                                                                                                                                                                                                                                                                                                                                                                                                                                                                                                                                                                                                                        ",
"      .......                                                                                                                                                                                                                                                                                                                                                                                                                                                                                                                                                                                                           ",
"     .........                                                                                                                                                                                                                                                                                                                                                                                                                                                                                                                                                                                                          ",
"     ....    .                                                                                                                                                                                                                                                                                                                                                                                                                                                                                                                                                                                                          ",
"     ... ......                                                                                                                                                                                                                                                                                                                                                                                                                                                                                                                                                                                                         ",
"     ... ......                                                                                                                                                                                                                                                                                                                                                                                                                                                                                                                                                                                                         ",
"  ...... ......                                                                                                                                                                                                                                                                                                                                                                                                                                                                                                                                                                                                         ",
"  .. ....                                                                                                                                                                                                                                                                                                                                                                                                                                                                                                                                                                                                               ",
"  .. .........                                                                                                                                                                                                                                                                                                                                                                                                                                                                                                                                                                                                          ",
"  .. .........                                                                                                                                                                                                                                                                                                                                                                                                                                                                                                                                                                                                          ",
"  .. .........                                                                                                                                                                                                                                                                                                                                                                                                                                                                                                                                                                                                          ",
"  .. .........                                                                                                                                                                                                                                                                                                                                                                                                                                                                                                                                                                                                          ",
"  .. ......................................................................................................................................................................................................................................................................................................................................................................................................................................................................................................................................................................................................             ",
"  .. .........                                                                                                                                                                                                                                                                                                                                                                                                                                                                                                                                                                                                          ",
"     ...   ...                                                                                                                                                                                                                                                                                                                                                                                                                                                                                                                                                                                                          ",
"     ...   ...                                                                                                                                                                                                                                                                                                                                                                                                                                                                                                                                                                                                          ",
"     ...   ...                                                                                                                                                                                                                                                                                                                                                                                                                                                                                                                                                                                                          ",
"                                                                                                                                                                                                                                                                                                                                                                                                                                                                                                                                                                                                                        ",
"                                                                                                                                                                                                                                                                                                                                                                                                                                                                                                                                                                                                                        "
};
