/* XPM */
static char *f82f30ed1af54f488d932a165069c854TpbQjcZTv2gA3fqX[] = {
/* columns rows colors chars-per-pixel */
"16 16 2 1 ",
"  c black",
". c white",
/* pixels */
"                ",
"   .........    ",
"  ...........   ",
" .............  ",
" .............  ",
" ..... . .....  ",
" .............  ",
" .............  ",
"  ...........   ",
"   .........    ",
"    .......     ",
"     .....      ",
"      ...       ",
"       .        ",
"       .        ",
"                "
};
