/* XPM */
static char *result[] = {
/* columns rows colors chars-per-pixel */
"16 16 5 1 ",
"  c #791A26",
". c #8C1D2A",
"X c #A4222F",
"o c #C62A37",
"O c #E23F36",
/* pixels */
"oXX X..XoXX ooXX",
"XX  o .X. X XoXO",
"X. oX O O.oX oXo",
" .. ..oXoXo  .XX",
"X .OX.ooXX.oO.oX",
"O  ooXXo.XooX Oo",
"oo Xo.OX.XX.. .o",
"Xo  X.ooXX. .o. ",
"X..ooXXoX. O.oo ",
" .O oo.XX XooXoX",
"X.oo.X..X  Xo.XX",
"XXXo..O .. .X.X ",
"XOXX oo OX.XXX. ",
" oXo oXXooXo.o o",
"oo.o. XoXoX.o .o",
"oX.XX. ooXXoo XX"
};
