/* XPM */
static char *result[] = {
/* columns rows colors chars-per-pixel */
"16 16 14 1 ",
"  c #FF8989",
". c #BF9393",
"X c #938C8C",
"o c #FD5E5E",
"O c gray50",
"+ c #747474",
"@ c #686868",
"# c #695C5C",
"$ c #F71C1C",
"% c red",
"& c #CA0707",
"* c #C60404",
"= c #960606",
"- c #970303",
/* pixels */
"XXXXO++O+@++OOOO",
"OO+O+OOOOOO@@+O+",
"O+@@+@##+++OOOOO",
"OOO+@===@@++O+++",
"+O+&=&%o*-O+#+OO",
"OX+X*% %.XOO&$+X",
"+OOOX...X+O+OXOO",
"+##@+@++OO+###OO",
"+$o=XOOXX=&=&o$+",
"O=$OOOXXXO.o $.O",
"@O+O++@@+O+...++",
"OOO@@###OOOOXXOX",
"O++=$&$=#OO&$X@+",
"XXOXo .X++OXX++X",
"O++OX.XOOOOOXXXX",
"OOOOOO++OXXOO+OO"
};
